<svg viewBox="0 0 800 800" xmlns="http://www.w3.org/2000/svg"><path d="M640.1414130258138,338.5526482816239 L640.6285976338121,190.95603827163927 M157.9802491066149,607.8756519889605 L157.48540551985042,459.6728794272685 M640.1414130258138,338.5526482816239 L664.040215487768,353.25760784674856 M664.040215487768,353.25760784674856 L685.0761401545255,369.28028494206796 M685.0761401545255,369.28028494206796 L703.0167549651916,386.44855808806926 M703.0167549651916,386.44855808806926 L717.6623726129394,404.57743070260506 M717.6623726129394,404.57743070260506 L728.8482917063768,423.47095358555043 M728.8482917063768,423.47095358555043 L736.4468279281364,442.9242576724354 M736.4468279281364,442.9242576724354 L740.3688808473047,462.72571586132824 M740.3688808473047,462.72571586132824 L740.5652175903676,482.65913998344115 M740.5652175903676,482.65913998344115 L737.0272579400787,502.5062010567657 M737.0272579400787,502.5062010567657 L729.7874482826314,522.048717979636 M729.7874482826314,522.048717979636 L718.919211826605,541.0711649894091 M718.919211826605,541.0711649894091 L704.5363487919351,559.3630388416273 M704.5363487919351,559.3630388416273 L686.7920767562371,576.721266768531 M686.7920767562371,576.721266768531 L665.8775012882462,592.9525504981514 M665.8775012882462,592.9525504981514 L642.0197508933855,607.8756519889604 M642.0197508933855,607.8756519889604 L615.4794553960928,621.3234574932544 M615.4794553960928,621.3234574932544 L586.5480586140844,633.1450436848808 M586.5480586140844,633.1450436848808 L555.5444623783965,643.2074160342237 M555.5444623783965,643.2074160342237 L522.8115770608472,651.3971896862911 M522.8115770608472,651.3971896862911 L488.71236673815486,657.6219260173772 M488.71236673815486,657.6219260173772 L453.6256757763016,661.8112912762317 M453.6256757763016,661.8112912762317 L417.94182556170347,663.9178920691984 M417.94182556170347,663.9178920691984 L382.0581744382966,663.9178920691984 M382.0581744382966,663.9178920691984 L346.37432422369847,661.8112912762317 M346.37432422369847,661.8112912762317 L311.2876332618452,657.6219260173772 M311.2876332618452,657.6219260173772 L277.1884229391528,651.3971896862911 M277.1884229391528,651.3971896862911 L244.45553762160358,643.2074160342236 M244.45553762160358,643.2074160342236 L213.45194138591563,633.1450436848808 M213.45194138591563,633.1450436848808 L184.52054460390735,621.3234574932544 M184.52054460390735,621.3234574932544 L157.9802491066149,607.8756519889605 M640.6285976338121,190.95603827163927 L664.5761137954223,205.62768142613731 M664.5761137954223,205.62768142613731 L685.6550028297363,221.61408555618607 M685.6550028297363,221.61408555618607 L703.6323541779312,238.74352577562797 M703.6323541779312,238.74352577562797 L718.3080653975618,256.83143030049393 M718.3080653975618,256.83143030049393 L729.5170882407534,275.6822982378992 M729.5170882407534,275.6822982378992 L737.1314644315777,295.09172744312696 M737.1314644315777,295.09172744312696 L741.0618962634095,314.84857122072435 M741.0618962634095,314.84857122072435 L741.2590335632751,334.7371301634339 M741.2590335632751,334.7371301634339 L737.7142611299336,354.5395668533729 M737.7142611299336,354.5395668533729 L730.4600742054674,374.0381893869127 M730.4600742054674,374.0381893869127 L719.5700293526324,393.0179532616854 M719.5700293526324,393.0179532616854 L705.1581441384001,411.26882338656605 M705.1581441384001,411.26882338656605 L687.3779361708354,428.5881768602252 M687.3779361708354,428.5881768602252 L666.4208911599015,444.7831420252452 M666.4208911599015,444.7831420252452 L642.51459448015,459.6728794272683 M642.51459448015,459.6728794272683 L615.920204682366,473.09064164200595 M615.920204682366,473.09064164200595 L586.9297608029068,484.88583518759106 M586.9297608029068,484.88583518759106 L555.8628194856548,494.9257554235203 M555.8628194856548,494.9257554235203 L523.0629982597175,503.0972640687172 M523.0629982597175,503.0972640687172 L488.89401226533505,509.3081231357953 M488.89401226533505,509.3081231357953 L453.73549181653846,513.4881512984468 M453.73549181653846,513.4881512984468 L417.9785695258085,515.5900577602965 M417.9785695258085,515.5900577602965 L382.0214304741916,515.5900577602965 M382.0214304741916,515.5900577602965 L346.2645081834617,513.4881512984468 M346.2645081834617,513.4881512984468 L311.105987734665,509.3081231357953 M311.105987734665,509.3081231357953 L276.93700174028265,503.0972640687172 M276.93700174028265,503.0972640687172 L244.13718051434535,494.92575542352006 M244.13718051434535,494.92575542352006 L213.07023919709323,484.88583518759106 M213.07023919709323,484.88583518759106 L184.07979531763402,473.09064164200595 M184.07979531763402,473.09064164200595 L157.48540551985042,459.6728794272685 M157.9802491066149,607.8756519889605 L134.1224987117539,592.9525504981514 M134.1224987117539,592.9525504981514 L113.20792324376305,576.721266768531 M113.20792324376305,576.721266768531 L95.46365120806496,559.363038841627 M95.46365120806496,559.363038841627 L81.0807881733952,541.071164989409 M81.0807881733952,541.071164989409 L70.21255171736868,522.048717979636 M70.21255171736868,522.048717979636 L62.97274205992147,502.5062010567657 M62.97274205992147,502.5062010567657 L59.434782409632476,482.6591399834409 M59.434782409632476,482.6591399834409 L59.631119152695305,462.725715861328 M59.631119152695305,462.725715861328 L63.553172071863855,442.9242576724354 M63.553172071863855,442.9242576724354 L71.15170829362341,423.47095358555043 M71.15170829362341,423.47095358555043 L82.33762738706065,404.57743070260506 M82.33762738706065,404.57743070260506 L96.98324503480848,386.4485580880689 M96.98324503480848,386.4485580880689 L114.92385984547445,369.28028494206796 M114.92385984547445,369.28028494206796 L135.95978451223198,353.25760784674856 M135.95978451223198,353.25760784674856 L159.85858697418593,338.5526482816239 M159.85858697418593,338.5526482816239 L186.35784199900604,325.3229859880314 M186.35784199900604,325.3229859880314 L215.1678991720572,313.71001059044875 M215.1678991720572,313.71001059044875 L245.97515855960376,303.83759870412064 M245.97515855960376,303.83759870412064 L278.44529050311803,295.81083281145766 M278.44529050311803,295.81083281145766 L312.22681452541747,289.715026827767 M312.22681452541747,289.715026827767 L346.95477099131955,285.6148794095503 M346.95477099131955,285.6148794095503 L382.2545171081839,283.55388418313044 M382.2545171081839,283.55388418313044 L417.7454828918161,283.55388418313044 M417.7454828918161,283.55388418313044 L453.0452290086805,285.6148794095503 M453.0452290086805,285.6148794095503 L487.77318547458265,289.715026827767 M487.77318547458265,289.715026827767 L521.5547094968821,295.81083281145766 M521.5547094968821,295.81083281145766 L554.0248414403964,303.83759870412064 M554.0248414403964,303.83759870412064 L584.8321008279429,313.71001059044875 M584.8321008279429,313.71001059044875 L613.642158000994,325.3229859880314 M613.642158000994,325.3229859880314 L640.1414130258138,338.5526482816239 M157.48540551985042,459.6728794272685 L133.57910884009846,444.7831420252452 M133.57910884009846,444.7831420252452 L112.62206382916469,428.5881768602252 M112.62206382916469,428.5881768602252 L94.84185586160004,411.2688233865657 M94.84185586160004,411.2688233865657 L80.42997064736767,393.0179532616854 M80.42997064736767,393.0179532616854 L69.53992579453256,374.0381893869127 M69.53992579453256,374.0381893869127 L62.28573887006661,354.5395668533722 M62.28573887006661,354.5395668533722 L58.74096643672493,334.7371301634339 M58.74096643672493,334.7371301634339 L58.938103736590506,314.84857122072435 M58.938103736590506,314.84857122072435 L62.86853556842243,295.0917274431265 M62.86853556842243,295.0917274431265 L70.4829117592468,275.6822982378992 M70.4829117592468,275.6822982378992 L81.69193460243815,256.83143030049393 M81.69193460243815,256.83143030049393 L96.36764582206877,238.74352577562797 M96.36764582206877,238.74352577562797 L114.3449971702637,221.61408555618607 M114.3449971702637,221.61408555618607 L135.4238862045778,205.62768142613731 M135.4238862045778,205.62768142613731 L159.37140236618762,190.95603827163927 M159.37140236618762,190.95603827163927 L185.92458437148161,177.7563715947747 M185.92458437148161,177.7563715947747 L214.79319389573493,166.169743258861 M214.79319389573493,166.169743258861 L245.66299780761534,156.31974198139642 M245.66299780761534,156.31974198139642 L278.1989942773225,148.31120548335502 M278.1989942773225,148.31120548335502 L312.0489985884336,142.22924859852378 M312.0489985884336,142.22924859852378 L346.84732177441845,138.13841878780272 M346.84732177441845,138.13841878780272 L382.21857374931375,136.0821079308016 M382.21857374931375,136.0821079308016 L417.78142625068637,136.0821079308016 M417.78142625068637,136.0821079308016 L453.15267822558155,138.13841878780272 M453.15267822558155,138.13841878780272 L487.95100141156644,142.22924859852378 M487.95100141156644,142.22924859852378 L521.8010057226775,148.31120548335502 M521.8010057226775,148.31120548335502 L554.3370021923847,156.31974198139642 M554.3370021923847,156.31974198139642 L585.2068061042652,166.169743258861 M585.2068061042652,166.169743258861 L614.0754156285184,177.7563715947747 M614.0754156285184,177.7563715947747 L640.6285976338121,190.95603827163927 M183.01436341460362,364.32696873549014 L182.5738256817831,216.6719796998201 M206.0736414940955,351.531883315075 L205.68006663595065,203.90586547948715 M183.01436341460362,364.32696873549014 L180.60867959337776,362.609483836713 M180.60867959337776,362.609483836713 L179.01331790213624,360.62010842153563 M179.01331790213624,360.62010842153563 L178.32086153893667,358.4745202141512 M178.32086153893667,358.4745202141512 L178.57140759883183,356.2974587638223 M178.57140759883183,356.2974587638223 L179.75022230056257,354.2154346104346 M179.75022230056257,354.2154346104346 L181.7886357665327,352.3493815231909 M181.7886357665327,352.3493815231909 L184.56812095785264,350.8076729435021 M184.56812095785264,350.8076729435021 L187.92714556946075,349.67980983830705 M187.92714556946075,349.67980983830705 L191.6705567434608,349.0312430368533 M191.6705567434608,349.0312430368533 L195.5809640854659,348.89961982985085 M195.5809640854659,348.89961982985085 L199.43128333023503,349.2925777996344 M199.43128333023503,349.2925777996344 L202.99789062725895,350.18730428609285 M202.99789062725895,350.18730428609285 L206.0736414940955,351.531883315075 M182.5738256817831,216.6719796998201 L180.16327993774544,214.9583824881048 M180.16327993774544,214.9583824881048 L178.56470536092948,212.97351064301176 M178.56470536092948,212.97351064301176 L177.87087136227768,210.8327801635063 M177.87087136227768,210.8327801635063 L178.12195447047148,208.6606482514021 M178.12195447047148,208.6606482514021 L179.30318898963907,206.58333896378986 M179.30318898963907,206.58333896378986 L181.3457637929179,204.721512096276 M181.3457637929179,204.721512096276 L184.13090971129134,203.18329547273288 M184.13090971129134,203.18329547273288 L187.4967654640163,202.05798714438538 M187.4967654640163,202.05798714438538 L191.24778148414075,201.41088951044844 M191.24778148414075,201.41088951044844 L195.16612603554302,201.27956446927078 M195.16612603554302,201.27956446927078 L199.02425427775543,201.67163227807623 M199.02425427775543,201.67163227807623 L202.59808915049078,202.56433202363405 M202.59808915049078,202.56433202363405 L205.68006663595065,203.90586547948715 M206.0736414940955,351.531883315075 L208.47982075550368,353.24826403480006 M208.47982075550368,353.24826403480006 L210.07654209655,355.23678822584475 M210.07654209655,355.23678822584475 L210.7709108463283,357.3819731665118 M210.7709108463283,357.3819731665118 L210.52239179812128,359.55917169428835 M210.52239179812128,359.55917169428835 L209.34525436774413,361.64184186378236 M209.34525436774413,361.64184186378236 L207.30778420244553,363.5089019157814 M207.30778420244553,363.5089019157814 L204.5282922293208,365.05174772067653 M204.5282922293208,365.05174772067653 L201.16831230702877,366.1806177851354 M201.16831230702877,366.1806177851354 L197.42321615653194,366.8298306070234 M197.42321615653194,366.8298306070234 L193.51078016777868,366.96159089097614 M193.51078016777868,366.96159089097614 L189.6585533461271,366.56822965199467 M189.6585533461271,366.56822965199467 L186.0905965518979,365.6726519435829 M186.0905965518979,365.6726519435829 L183.01436341460362,364.32696873549014 M205.68006663595065,203.90586547948715 L208.0911098470056,205.61835877600038 M208.0911098470056,205.61835877600038 L209.691049609439,207.60237960036602 M209.691049609439,207.60237960036602 L210.38680377129836,209.74270690951676 M210.38680377129836,209.74270690951676 L210.13775591067767,211.91497586631408 M210.13775591067767,211.91497586631408 L208.95820547125683,213.9929310156624 M208.95820547125683,213.9929310156624 L206.91657778988022,215.85576460731136 M206.91657778988022,215.85576460731136 L204.1314250483193,217.39511818431367 M204.1314250483193,217.39511818431367 L200.76461009039463,218.52143323130656 M200.76461009039463,218.52143323130656 L197.0119022383631,219.1691767313074 M197.0119022383631,219.1691767313074 L193.0915207943503,219.30063881667968 M193.0915207943503,219.30063881667968 L189.23147722797532,218.90816783503942 M189.23147722797532,218.90816783503942 L185.6562873841736,218.01461707093347 M185.6562873841736,218.01461707093347 L182.5738256817831,216.6719796998201 M595.2954029798207,594.7025509508971 L595.6945601419872,446.52922858682757 M618.3546776606145,581.7358384681714 L618.8007976696838,433.5915248192822 M595.2954029798207,594.7025509508971 L592.8529498076225,592.9620248028114 M592.8529498076225,592.9620248028114 L591.2229627738342,590.9459619887429 M591.2229627738342,590.9459619887429 L590.5000364587149,588.771592537984 M590.5000364587149,588.771592537984 L590.7260372378987,586.5653295078356 M590.7260372378987,586.5653295078356 L591.8876553408803,584.4553802820429 M591.8876553408803,584.4553802820429 L593.9172174523856,582.5643002749755 M593.9172174523856,582.5643002749755 L596.6967090792987,581.0019158154812 M596.6967090792987,581.0019158154812 L600.0645963730042,579.8589275111483 M600.0645963730042,579.8589275111483 L603.8252111999469,579.2016633363363 M603.8252111999469,579.2016633363363 L607.7601648631826,579.0682750635369 M607.7601648631826,579.0682750635369 L611.6409487419704,579.4665026156808 M611.6409487419704,579.4665026156808 L615.2421708417262,580.373227647257 M615.2421708417262,580.373227647257 L618.3546776606145,581.7358384681714 M595.6945601419872,446.52922858682757 L593.2470951106982,444.7925951395714 M593.2470951106982,444.7925951395714 L591.613754011977,442.78104171155553 M591.613754011977,442.78104171155553 L590.8893258386697,440.6115362715416 M590.8893258386697,440.6115362715416 L591.11576360957,438.4102091654695 M591.11576360957,438.4102091654695 L592.2797314393617,436.30498092273547 M592.2797314393617,436.30498092273547 L594.313418820032,434.41813262659923 M594.313418820032,434.41813262659923 L597.0985712125521,432.85924466605 M597.0985712125521,432.85924466605 L600.4733257832271,431.7188144653883 M600.4733257832271,431.7188144653883 L604.2416155886189,431.0630213724763 M604.2416155886189,431.0630213724763 L608.1846065229527,430.9299316541335 M608.1846065229527,430.9299316541335 L612.0733235884182,431.32726788516607 M612.0733235884182,431.32726788516607 L615.6819143781281,432.2319635356571 M615.6819143781281,432.2319635356571 L618.8007976696838,433.5915248192822 M618.3546776606145,581.7358384681714 L620.79761952773,583.4752381464882 M620.79761952773,583.4752381464882 L622.4289741258401,585.4904325522585 M622.4289741258401,585.4904325522585 L623.1538335887714,587.664390595316 M623.1538335887714,587.664390595316 L622.9298886730231,589.8707934701764 M622.9298886730231,589.8707934701764 L621.7699781740167,591.9814017535845 M621.7699781740167,591.9814017535845 L619.7413842280602,593.873509053601 M619.7413842280602,593.873509053601 L616.9618995200001,595.4370536961408 M616.9618995200001,595.4370536961408 L613.5930563133705,596.5810692878209 M613.5930563133705,596.5810692878209 L609.830741743045,597.2389925246653 M609.830741743045,597.2389925246653 L605.8937338841697,597.3725206416686 M605.8937338841697,597.3725206416686 L602.0110119505679,596.9738816792915 M602.0110119505679,596.9738816792915 L598.4084119289679,596.0662882416406 M598.4084119289679,596.0662882416406 L595.2954029798207,594.7025509508971 M618.8007976696838,433.5915248192822 L621.2487533814248,435.3270320201018 M621.2487533814248,435.3270320201018 L622.8834676287354,437.33771721198946 M622.8834676287354,437.33771721198946 L623.6098368535936,439.50681132586715 M623.6098368535936,439.50681132586715 L623.3854633586596,441.7082782489256 M623.3854633586596,441.7082782489256 L622.2232101269498,443.81416541861074 M622.2232101269498,443.81416541861074 L620.190494885297,445.70204080402596 M620.190494885297,445.70204080402596 L617.4053494541323,447.262088717604 M617.4053494541323,447.262088717604 L614.0296350723324,448.40354600194485 M614.0296350723324,448.40354600194485 L610.2596385777385,449.0599980262249 M610.2596385777385,449.0599980262249 L606.3145850454794,449.1932275610462 M606.3145850454794,449.1932275610462 L602.4239219913169,448.79548000134594 M602.4239219913169,448.79548000134594 L598.8139476318694,447.8899161169486 M598.8139476318694,447.8899161169486 L595.6945601419872,446.52922858682757 M593.9983969842298,364.3269673483452 L594.3922645937163,216.67197831581507 M616.9050624256215,351.53188470119005 L617.345272719035,203.90586686246252 M593.9983969842298,364.3269673483452 L591.5722213811217,362.6094858016397 M591.5722213811217,362.6094858016397 L589.9531312306503,360.6201042609956 M589.9531312306503,360.6201042609956 L589.2350918168527,358.4745202141512 M589.2350918168527,358.4745202141512 L589.459667395313,356.297461305737 M589.459667395313,356.297461305737 L590.6136463368834,354.2154325309375 M590.6136463368834,354.2154325309375 L592.6298158500932,352.34938077234256 M592.6298158500932,352.34938077234256 L595.3909053459049,350.80767646639686 M595.3909053459049,350.80767646639686 L598.736475447194,349.6798063733919 M598.736475447194,349.6798063733919 L602.4721594407974,349.03124141995363 M602.4721594407974,349.03124141995363 L606.3809923556345,348.8996207537866 M606.3809923556345,348.8996207537866 L610.2359909357415,349.29257456578637 M610.2359909357415,349.29257456578637 L613.8132806850081,350.1873016295789 M613.8132806850081,350.1873016295789 L616.9050624256215,351.53188470119005 M594.3922645937163,216.67197831581507 L591.9611437928133,214.95838444858316 M591.9611437928133,214.95838444858316 L590.3387443186983,212.9735064918907 M590.3387443186983,212.9735064918907 L589.6192232826636,210.8327801635063 M589.6192232826636,210.8327801635063 L589.844230379216,208.66065078756014 M589.844230379216,208.66065078756014 L591.0005282230495,206.58333688900257 M591.0005282230495,206.58333688900257 L593.0207686632998,204.72151134712817 M593.0207686632998,204.72151134712817 L595.7874441575309,203.1832989876484 M595.7874441575309,203.1832989876484 L599.139790739383,202.05798368731894 M599.139790739383,202.05798368731894 L602.8830481676647,201.41088789721152 M602.8830481676647,201.41088789721152 L606.7998119045538,201.2795653911137 M606.7998119045538,201.2795653911137 L610.6626385087054,201.6716290515535 M610.6626385087054,201.6716290515535 L614.2471992132722,202.56432937313775 M614.2471992132722,202.56432937313775 L617.345272719035,203.90586686246252 M616.9050624256215,351.53188470119005 L619.331720294588,353.2482620709409 M619.331720294588,353.2482620709409 L620.9521599479759,355.2367923850852 M620.9521599479759,355.2367923850852 L621.6721069357901,357.3819731665118 M621.6721069357901,357.3819731665118 L621.4495600018087,359.559169151893 M621.4495600018087,359.559169151893 L620.2972660418845,361.6418439441759 M620.2972660418845,361.6418439441759 L618.2820518348423,363.508902667116 M618.2820518348423,363.508902667116 L615.5209691209519,365.05174419486787 M615.5209691209519,365.05174419486787 L612.1744557236979,366.1806212533711 M612.1744557236979,366.1806212533711 L608.4370944534927,366.82983222559426 M608.4370944534927,366.82983222559426 L604.5262345289525,366.9615899660712 M604.5262345289525,366.9615899660712 L600.6693235649607,366.5682328890873 M600.6693235649607,366.5682328890873 L597.0906741601918,365.67265460248564 M597.0906741601918,365.67265460248564 L593.9983969842298,364.3269673483452 M617.345272719035,203.90586686246252 L619.7768777322511,205.61835681658908 M619.7768777322511,205.61835681658908 L621.4006321831671,207.60238375018753 M621.4006321831671,207.60238375018753 L622.1220685404865,209.74270690951676 M622.1220685404865,209.74270690951676 L621.8990983342655,211.91497332967447 M621.8990983342655,211.91497332967447 L620.7444923275093,213.99293309134634 M620.7444923275093,213.99293309134634 L618.7252110879243,215.8557653569453 M618.7252110879243,215.8557653569453 L615.9585424169981,217.39511466648548 M615.9585424169981,217.39511466648548 L612.60524871797,218.521436691693 M612.60524871797,218.521436691693 L608.8603072046718,219.16917834621506 M608.8603072046718,219.16917834621506 L604.9415082222021,219.30063789386827 M604.9415082222021,219.30063789386827 L601.0767614575475,218.90817106480642 M601.0767614575475,218.90817106480642 L597.4908355616428,218.01461972381833 M597.4908355616428,218.01461972381833 L594.3922645937163,216.67197831581507 M181.56367242845008,594.7025495451422 L181.11721837324106,446.5292271842162 M204.7775967561919,581.7358398728759 L204.37873825111075,433.5915262208431 M181.56367242845008,594.7025495451422 L179.14197126960485,592.962026794098 M179.14197126960485,592.962026794098 L177.53602892081125,590.9459577723909 M177.53602892081125,590.9459577723909 L176.83904392281565,588.771592537984 M176.83904392281565,588.771592537984 L177.09135430675985,586.5653320838445 M177.09135430675985,586.5653320838445 L178.27813457526517,584.4553781746556 M178.27813457526517,584.4553781746556 L180.33026433081596,582.5642995140577 M180.33026433081596,582.5642995140577 L183.12838284449924,581.0019193856201 M183.12838284449924,581.0019193856201 L186.50990026298015,579.8589239997676 M186.50990026298015,579.8589239997676 L190.27836265921113,579.2016616977543 M190.27836265921113,579.2016616977543 L194.21490264046056,579.0682759998624 M194.21490264046056,579.0682759998624 L198.09092934223145,579.4664993384664 M198.09092934223145,579.4664993384664 L201.68134795147392,580.3732249551183 M201.68134795147392,580.3732249551183 L204.7775967561919,581.7358398728759 M181.11721837324106,446.5292271842162 L178.69059028340536,444.7925971264043 M178.69059028340536,444.7925971264043 L177.08139225255474,442.7810375046348 M177.08139225255474,442.7810375046348 L176.38301151549263,440.6115362715416 M176.38301151549263,440.6115362715416 L176.6358665350598,438.4102117357148 M176.6358665350598,438.4102117357148 L177.8250994710317,436.30497882006387 M177.8250994710317,436.30497882006387 L179.88144678462712,434.418131867384 M179.88144678462712,434.418131867384 L182.68530227071045,432.859248228199 M182.68530227071045,432.859248228199 L186.07374272123087,431.7188109618669 M186.07374272123087,431.7188109618669 L189.8499121762217,431.0630197375616 M189.8499121762217,431.0630197375616 L193.79449592611698,430.9299325883628 M193.79449592611698,430.9299325883628 L197.67843637273413,431.3272646152867 M197.67843637273413,431.3272646152867 L201.2761794613103,432.2319608495437 M201.2761794613103,432.2319608495437 L204.37873825111075,433.5915262208431 M204.7775967561919,581.7358398728759 L207.19980004061074,583.4752361562907 M207.19980004061074,583.4752361562907 L208.80712031709174,585.4904367672842 M208.80712031709174,585.4904367672842 L209.5060433669497,587.664390595316 M209.5060433669497,587.664390595316 L209.25578717634346,589.8707908936764 M209.25578717634346,589.8707908936764 L208.07070665647458,591.9814038618863 M208.07070665647458,591.9814038618863 L206.0195328092103,593.8735098150154 M206.0195328092103,593.8735098150154 L203.22140737683497,595.4370501230286 M203.22140737683497,595.4370501230286 L199.83892179756717,596.5810728025895 M199.83892179756717,596.5810728025895 L196.06875179200944,597.2389941649524 M196.06875179200944,597.2389941649524 L192.13015594937235,597.3725197043544 M192.13015594937235,597.3725197043544 L188.2521961024973,596.9738849598166 M188.2521961024973,596.9738849598166 L184.66040992314325,596.0662909362163 M184.66040992314325,596.0662909362163 L181.56367242845008,594.7025495451422 M204.37873825111075,433.5915262208431 L206.80587053456867,435.32703003435756 M206.80587053456867,435.32703003435756 L208.41645214102437,437.33772141758413 M208.41645214102437,437.33772141758413 L209.11677886381915,439.50681132586715 M209.11677886381915,439.50681132586715 L208.86598643986568,441.70827567818924 M208.86598643986568,441.70827567818924 L207.67846019837103,443.81416752219707 M207.67846019837103,443.81416752219707 L205.6230726912442,445.70204156373745 M205.6230726912442,445.70204156373745 L202.81921024396775,447.2620851524824 M202.81921024396775,447.2620851524824 L199.42979765921146,448.40354950885376 M199.42979765921146,448.40354950885376 L195.651913600765,449.05999966284435 M195.651913600765,449.05999966284435 L191.7052655769592,449.1932266258276 M191.7052655769592,449.1932266258276 L187.81938408150944,448.79548327453494 M187.81938408150944,448.79548327453494 L184.2202678385305,447.8899188054986 M184.2202678385305,447.8899188054986 L181.11721837324106,446.5292271842162 M228.32551072077501,568.5825720558805 L227.97489623084178,420.46770467224724 M570.7272396902738,377.3256459047218 L571.0739917708859,229.641244397656 M228.32551072077501,568.5825720558805 L208.233566530434,555.7771393019303 M208.233566530434,555.7771393019303 L191.18753079075702,541.6686923780516 M191.18753079075702,541.6686923780516 L177.45412883070264,526.4826378209169 M177.45412883070264,526.4826378209169 L167.24662059078324,510.4609880454907 M167.24662059078324,510.4609880454907 L160.72162580314412,493.8584026646579 M160.72162580314412,493.8584026646579 L157.97699069700298,476.9380061035773 M157.97699069700298,476.9380061035773 L159.05048315753135,459.96721441256307 M159.05048315753135,459.96721441256307 L163.91962219019652,443.21345000456733 M163.91962219019652,443.21345000456733 L172.50228502669967,426.9399370189841 M172.50228502669967,426.9399370189841 L184.6584690070796,411.4016314041976 M184.6584690070796,411.4016314041976 L200.19265492532577,396.8412988508312 M200.19265492532577,396.8412988508312 L218.8572366966858,383.48583744702466 M218.8572366966858,383.48583744702466 L240.3564925277697,371.54284796233765 M240.3564925277697,371.54284796233765 L264.35139644245936,361.1975747185418 M264.35139644245936,361.1975747185418 L290.4649580627081,352.61017929595505 M290.4649580627081,352.61017929595505 L318.2880313334631,345.91336472931573 M318.2880313334631,345.91336472931573 L347.3856389739804,341.21050506668666 M347.3856389739804,341.21050506668666 L377.3035814167497,338.5740928840761 M377.3035814167497,338.5740928840761 L407.5753225109888,338.04477432805584 M407.5753225109888,338.04477432805584 L437.7289871060687,339.6306918499221 M437.7289871060687,339.6306918499221 L467.29446365362605,343.3074217019921 M467.29446365362605,343.3074217019921 L495.8105403988429,349.01827989585854 M495.8105403988429,349.01827989585854 L522.831764248869,356.675180518107 M522.831764248869,356.675180518107 L547.9352749213474,366.1598691916339 M547.9352749213474,366.1598691916339 L570.7272396902738,377.3256459047218 M227.97489623084178,420.46770467224724 L207.8420628155002,407.69095902908384 M207.8420628155002,407.69095902908384 L190.7614004138118,393.6141405897192 M190.7614004138118,393.6141405897192 L177.00017178789213,378.4621564637 M177.00017178789213,378.4621564637 L166.77206207393084,362.47648119968153 M166.77206207393084,362.47648119968153 L160.2339980859264,345.91120658712987 M160.2339980859264,345.91120658712987 L157.48401143808772,329.02886835281106 M157.48401143808772,329.02886835281106 L158.55993192770467,312.0962821524014 M158.55993192770467,312.0962821524014 L163.4392175998426,295.38026786800265 M163.4392175998426,295.38026786800265 L172.03956404160934,279.1434544842964 M172.03956404160934,279.1434544842964 L184.22067074896114,263.6402195094074 M184.22067074896114,263.6402195094074 L199.78661007261022,249.11277603077474 M199.78661007261022,249.11277603077474 L218.48926449856492,235.78750403989443 M218.48926449856492,235.78750403989443 L240.032306339912,223.87152890132597 M240.032306339912,223.87152890132597 L264.076019274156,213.54966961749255 M264.076019274156,213.54966961749255 L290.2426489799703,204.98171919205174 M290.2426489799703,204.98171919205174 L318.1222234444849,198.30007467463838 M318.1222234444849,198.30007467463838 L347.27888983328006,193.6078713796703 M347.27888983328006,193.6078713796703 L377.2575362446503,190.97743426944407 M377.2575362446503,190.97743426944407 L407.59069064735206,190.449315440997 M407.59069064735206,190.449315440997 L437.80553183119537,192.0316384982118 M437.80553183119537,192.0316384982118 L467.4310055475602,195.700036219911 M467.4310055475602,195.700036219911 L496.0049743211601,201.3979557347443 M496.0049743211601,201.3979557347443 L523.0810894450501,209.03751468724454 M523.0810894450501,209.03751468724454 L548.235638324511,218.50073159758801 M548.235638324511,218.50073159758801 L571.0739917708859,229.641244397656 M570.7272396902738,377.3256459047218 L590.84894519899,389.9994937026946 M590.84894519899,389.9994937026946 L607.9823911185533,403.9846240785962 M607.9823911185533,403.9846240785962 L621.8553595585837,419.0633788125758 M621.8553595585837,419.0633788125758 L632.2458210322376,435.0004873501181 M632.2458210322376,435.0004873501181 L638.9856600601823,451.54660197368094 M638.9856600601823,451.54660197368094 L641.9635314555117,468.4421463179955 M641.9635314555117,468.4421463179955 L641.1270123947875,485.4212658561628 M641.1270123947875,485.4212658561628 L636.4836942301082,502.21601491247793 M636.4836942301082,502.21601491247793 L628.1015109938562,518.5605942530827 M628.1015109938562,518.5605942530827 L616.1078685356971,534.1955827446606 M616.1078685356971,534.1955827446606 L600.6880730239061,548.8721399453775 M600.6880730239061,548.8721399453775 L582.0825426129404,562.3560650340811 M582.0825426129404,562.3560650340811 L560.5832885848029,574.4316855695477 M560.5832885848029,574.4316855695477 L536.5293364695873,584.9054235461404 M536.5293364695873,584.9054235461404 L510.30138637501665,593.6090452365429 M510.30138637501665,593.6090452365429 L482.3157718084568,600.402544715428 M482.3157718084568,600.402544715428 L453.01768303237327,605.1764724842261 M453.01768303237327,605.1764724842261 L422.8739168043907,607.8538706310121 M422.8739168043907,607.8538706310121 L392.36519873288756,608.3915172679501 M392.36519873288756,608.3915172679501 L361.9782944959444,606.7807468140934 M361.9782944959444,606.7807468140934 L332.1979714096003,603.0475445489623 M332.1979714096003,603.0475445489623 L303.4989407549714,597.2521431831035 M303.4989407549714,597.2521431831035 L276.3381515392514,589.4879408337574 M276.3381515392514,589.4879408337574 L251.14723331546938,579.8799342421255 M251.14723331546938,579.8799342421255 L228.32551072077501,568.5825720558805 M571.0739917708859,229.641244397656 L591.2367078635004,242.28643385208875 M591.2367078635004,242.28643385208875 L608.4051368653835,256.2399627049281 M608.4051368653835,256.2399627049281 L622.3065010557527,271.2846704688693 M622.3065010557527,271.2846704688693 L632.7183099937063,287.1858229808779 M632.7183099937063,287.1858229808779 L639.4720942445022,303.6946391845838 M639.4720942445022,303.6946391845838 L642.4562681954187,320.55213063667406 M642.4562681954187,320.55213063667406 L641.618287357101,337.49304286314293 M641.618287357101,337.49304286314293 L636.9657433313574,354.250032833658 M636.9657433313574,354.250032833658 L628.5666939420829,370.5578970326186 M628.5666939420829,370.5578970326186 L616.5487915203219,386.1577937440344 M616.5487915203219,386.1577937440344 L601.0977090338592,400.8014364582948 M601.0977090338592,400.8014364582948 L582.4543467566345,414.25514404821934 M582.4543467566345,414.25514404821934 L560.9113067329669,426.30372124265216 M560.9113067329669,426.30372124265216 L536.8083048356825,436.75401717715624 M536.8083048356825,436.75401717715624 L510.52682024060357,445.4381684652674 M510.52682024060357,445.4381684652674 L482.48404171876456,452.2164767624131 M482.48404171876456,452.2164767624131 L453.1260767296159,456.9797326308295 M453.1260767296159,456.9797326308295 L422.92068573078564,459.6511467475665 M422.92068573078564,459.6511467475665 L392.3495880700913,460.1875918368162 M392.3495880700913,460.1875918368162 L361.90055620309795,458.5804212792816 M361.90055620309795,458.5804212792816 L332.05935990667854,454.8555634869806 M332.05935990667854,454.8555634869806 L303.30169122788715,449.073119278387 M303.30169122788715,449.073119278387 L276.0854416629351,441.3262820524725 M276.0854416629351,441.3262820524725 L250.84312883334218,431.7397741801542 M250.84312883334218,431.7397741801542 L227.97489623084178,420.46770467224724" stroke="black"  stroke-width="4"  fill="red"/></svg>